<svg xmlns="http://www.w3.org/2000/svg" version="1.1" xmlns:xlink="http://www.w3.org/1999/xlink" xmlns:svgjs="http://svgjs.com/svgjs" width="1440" height="560" preserveAspectRatio="none" viewBox="0 0 1440 560"><g mask="url(&quot;#SvgjsMask1843&quot;)" fill="none"><rect width="1440" height="560" x="0" y="0" fill="rgba(0, 0, 0, 1)"></rect><path d="M18.52 452.8L88.67 493.3L88.67 574.3L18.52 614.8L-51.63 574.3L-51.63 493.3zM228.97 574.3L299.12 614.8L299.12 695.8L228.97 736.3L158.82 695.8L158.82 614.8zM299.12 209.8L369.27 250.3L369.27 331.3L299.12 371.8L228.97 331.3L228.97 250.3zM369.27 574.3L439.42 614.8L439.42 695.8L369.27 736.3L299.12 695.8L299.12 614.8zM649.87 574.3L720.02 614.8L720.02 695.8L649.87 736.3L579.72 695.8L579.72 614.8zM1000.62 -33.2L1070.77 7.3L1070.77 88.3L1000.62 128.8L930.47 88.3L930.47 7.3zM1070.77 331.3L1140.92 371.8L1140.92 452.8L1070.77 493.3L1000.62 452.8L1000.62 371.8zM1000.62 452.8L1070.77 493.3L1070.77 574.3L1000.62 614.8L930.47 574.3L930.47 493.3zM1351.37 574.3L1421.52 614.8L1421.52 695.8L1351.37 736.3L1281.22 695.8L1281.22 614.8zM1421.52 209.8L1491.67 250.3L1491.67 331.3L1421.52 371.8L1351.37 331.3L1351.37 250.3z" stroke="url(#SvgjsLinearGradient1844)" stroke-width="2"></path><path d="M65.51 165.12L135.66 205.62L135.66 286.62L65.51 327.12L-4.64 286.62L-4.64 205.62zM275.96 43.62L346.11 84.12L346.11 165.12L275.96 205.62L205.81 165.12L205.81 84.12zM416.26 43.62L486.41 84.12L486.41 165.12L416.26 205.62L346.11 165.12L346.11 84.12zM346.11 165.12L416.26 205.62L416.26 286.62L346.11 327.12L275.96 286.62L275.96 205.62zM556.56 529.62L626.71 570.12L626.71 651.12L556.56 691.62L486.41 651.12L486.41 570.12zM696.86 43.62L767.01 84.12L767.01 165.12L696.86 205.62L626.71 165.12L626.71 84.12zM696.86 529.62L767.01 570.12L767.01 651.12L696.86 691.62L626.71 651.12L626.71 570.12zM767.01 165.12L837.16 205.62L837.16 286.62L767.01 327.12L696.86 286.62L696.86 205.62zM1047.61 408.12L1117.76 448.62L1117.76 529.62L1047.61 570.12L977.46 529.62L977.46 448.62zM1117.76 529.62L1187.91 570.12L1187.91 651.12L1117.76 691.62L1047.61 651.12L1047.61 570.12zM1187.91 408.12L1258.06 448.62L1258.06 529.62L1187.91 570.12L1117.76 529.62L1117.76 448.62zM1328.21 165.12L1398.36 205.62L1398.36 286.62L1328.21 327.12L1258.06 286.62L1258.06 205.62zM1398.36 529.62L1468.51 570.12L1468.51 651.12L1398.36 691.62L1328.21 651.12L1328.21 570.12zM1538.66 286.62L1608.81 327.12L1608.81 408.12L1538.66 448.62L1468.51 408.12L1468.51 327.12z" stroke="url(#SvgjsLinearGradient1845)" stroke-width="2"></path></g><defs><mask id="SvgjsMask1843"><rect width="1440" height="560" fill="#ffffff"></rect></mask><linearGradient x1="220.03199999999998" y1="-220.02399999999997" x2="1219.9679999999998" y2="780.024" gradientUnits="userSpaceOnUse" id="SvgjsLinearGradient1844"><stop stop-color="rgba(158, 0, 129, 1)" offset="0"></stop><stop stop-color="rgba(252, 163, 17, 1)" offset="1"></stop></linearGradient><linearGradient x1="220.03199999999998" y1="-220.02399999999997" x2="1219.9679999999998" y2="780.024" gradientUnits="userSpaceOnUse" id="SvgjsLinearGradient1845"><stop stop-color="#0e2a47" offset="0"></stop><stop stop-color="rgba(0, 69, 158, 0.48)" offset="1"></stop></linearGradient></defs></svg>